<?xml version="1.0" standalone="no"?><!-- Generator: Gravit.io --><svg xmlns="http://www.w3.org/2000/svg" xmlns:xlink="http://www.w3.org/1999/xlink" style="isolation:isolate" viewBox="0 0 450 450" width="450" height="450"><g opacity="0"><rect x="0" y="0" width="450" height="450" transform="matrix(1,0,0,1,0,0)" fill="rgb(12,20,45)"/></g><g id="Group"><path d=" M 247.941 84.612 L 201.94 101.095 L 174.329 170.063 L 219.623 155.348 L 247.696 181.166 L 275.307 112.198 L 247.941 84.612 Z  M 252.964 72.068 C 210.077 86.761 189.813 94.837 192.155 96.273 L 155.783 187.125 L 214.866 167.23 L 252.58 201.774 L 288.952 110.922 C 288.507 106.177 276.516 93.234 252.964 72.068 Z  M 201.889 197.684 L 186.271 202.822 L 192.596 220.894 L 211.976 206.713 L 201.889 197.684 Z  M 206.424 186.355 L 170.198 198.104 L 174.99 211.09 L 173.717 227.849 L 180.908 227.127 L 185.318 239.076 L 200.788 227.915 L 206.424 231.593 L 213.973 218.403 L 229.641 207.1 L 206.424 186.355 Z  M 222.013 366.279 L 314.969 340.52 L 277.359 319.327 L 298.461 280.947 L 233.08 299.065 C 211.732 304.174 202.958 289.423 216.312 260.778 L 220.914 249.283 L 168.142 282.676 L 147.028 238.101 L 124.638 294.027 C 108.594 338.6 163.193 381.27 222.013 366.279 Z  M 147.008 208.09 L 173.717 268.75 L 244.107 222.784 L 228.177 262.573 C 220.912 279.318 219.285 291.566 235.756 289.922 L 319.52 266.71 L 290.727 315.622 L 340.519 342.485 L 232.641 372.379 C 147.158 394.901 93.842 345.049 113.593 292.356 L 147.008 208.09 Z  M 212.604 115.955 C 216.584 106.012 229.595 99.419 241.639 101.242 C 253.683 103.064 260.23 112.617 256.249 122.56 C 252.269 132.503 239.258 139.096 227.214 137.273 C 215.17 135.45 208.623 125.898 212.604 115.955 Z  M 223.909 117.693 C 225.863 112.858 232.162 109.635 237.966 110.498 C 243.771 111.362 246.897 115.988 244.943 120.822 C 242.99 125.656 236.691 128.88 230.887 128.016 C 225.082 127.153 221.956 122.527 223.909 117.693 Z " fill-rule="evenodd" fill="rgb(255,255,255)"/><clipPath id="_clipPath_rsRkZ3nerAnBafDolXBPrOQn1dLe2QzV"><path d=" M 247.941 84.612 L 201.94 101.095 L 174.329 170.063 L 219.623 155.348 L 247.696 181.166 L 275.307 112.198 L 247.941 84.612 Z  M 252.964 72.068 C 210.077 86.761 189.813 94.837 192.155 96.273 L 155.783 187.125 L 214.866 167.23 L 252.58 201.774 L 288.952 110.922 C 288.507 106.177 276.516 93.234 252.964 72.068 Z  M 201.889 197.684 L 186.271 202.822 L 192.596 220.894 L 211.976 206.713 L 201.889 197.684 Z  M 206.424 186.355 L 170.198 198.104 L 174.99 211.09 L 173.717 227.849 L 180.908 227.127 L 185.318 239.076 L 200.788 227.915 L 206.424 231.593 L 213.973 218.403 L 229.641 207.1 L 206.424 186.355 Z  M 222.013 366.279 L 314.969 340.52 L 277.359 319.327 L 298.461 280.947 L 233.08 299.065 C 211.732 304.174 202.958 289.423 216.312 260.778 L 220.914 249.283 L 168.142 282.676 L 147.028 238.101 L 124.638 294.027 C 108.594 338.6 163.193 381.27 222.013 366.279 Z  M 147.008 208.09 L 173.717 268.75 L 244.107 222.784 L 228.177 262.573 C 220.912 279.318 219.285 291.566 235.756 289.922 L 319.52 266.71 L 290.727 315.622 L 340.519 342.485 L 232.641 372.379 C 147.158 394.901 93.842 345.049 113.593 292.356 L 147.008 208.09 Z  M 212.604 115.955 C 216.584 106.012 229.595 99.419 241.639 101.242 C 253.683 103.064 260.23 112.617 256.249 122.56 C 252.269 132.503 239.258 139.096 227.214 137.273 C 215.17 135.45 208.623 125.898 212.604 115.955 Z  M 223.909 117.693 C 225.863 112.858 232.162 109.635 237.966 110.498 C 243.771 111.362 246.897 115.988 244.943 120.822 C 242.99 125.656 236.691 128.88 230.887 128.016 C 225.082 127.153 221.956 122.527 223.909 117.693 Z " fill-rule="evenodd" fill="rgb(255,255,255)"/></clipPath><g clip-path="url(#_clipPath_rsRkZ3nerAnBafDolXBPrOQn1dLe2QzV)"><rect x="78.233" y="68.559" width="250.017" height="306.866" transform="matrix(0.964,-0.267,0.267,0.964,-51.902,62.338)" fill="rgb(255,255,255)"/></g></g></svg>